<svg xmlns="http://www.w3.org/2000/svg" width="502" height="61" viewBox="0 0 502 61">
    <g fill="none" fill-rule="evenodd">
        <path fill="#FFF" d="M.132.893h501v60h-501z"/>
        <path fill="#000" d="M88.132.893h4v60h-4zM95.132.893h4v60h-4zM150.132.893h7v60h-7zM163.132.893h7v60h-7zM187.132.893h8v60h-8zM235.132.893h8v60h-8zM269.132.893h10v60h-10zM354.132.893h10v60h-10zM133.132.893h4v60h-4z"/>
        <path fill="#000" d="M133.132.893h4v60h-4zM143.132.893h4v60h-4z"/>
        <path fill="#000" d="M143.132.893h4v60h-4zM177.132.893h4v60h-4zM197.132.893h4v60h-4zM214.132.893h4v60h-4zM221.132.893h4v60h-4zM245.132.893h4v60h-4zM282.132.893h4v60h-4zM252.132.893h4v60h-4zM289.132.893h4v60h-4zM306.132.893h4v60h-4zM320.132.893h4v60h-4zM329.132.893h4v60h-4zM340.132.893h4v60h-4zM401.132.893h4v60h-4zM408.132.893h4v60h-4zM391.132.893h4v60h-4zM377.132.893h4v60h-4zM367.132.893h4v60h-4zM259.132.893h4v60h-4zM116.132.893h8v60h-8zM102.132.893h10v60h-10z"/>
    </g>
</svg>
