<svg xmlns="http://www.w3.org/2000/svg" width="137" height="145" style="background:#fff" viewBox="0 0 137 145">
    <g fill="none" fill-rule="evenodd">
        <path fill="#FFF" d="M0 0h137v145H0z"/>
        <path fill="#000" fill-rule="nonzero" d="M121.94 145h.12-.12zM142.305 97.527c5.728-1.334 3.236-5.508 2.664-7.978-3.781-16.496-10.425-32.056-16.898-47.643a25.595 25.595 0 0 0-8.592-10.62C101.293 18.028 83.049 4.825 60.739-.91 45.1-4.943 29.72-2.67 14.598 1.93c-1.432.425-3.694 1.022-3.093 2.98.716 2.442 2.864.852 3.981.285C24.767.99 34.705.906 44.557.594a26.317 26.317 0 0 1 14.75 2.584c-2.021.195-4.058.166-6.072-.085a80.832 80.832 0 0 0-38.578 5.195c-4.44 1.818-9.137 4.117-9.71 11.187C19.87 6.812 36.768 4.427 54.209 6.812A135.783 135.783 0 0 1 88.147 15.5c16.095 6.758 32.334 14.85 39.237 32.397a312.929 312.929 0 0 1 13.747 39.38c.4 1.59 1.231 3.294-.373 5.253a227.664 227.664 0 0 0-18.787-47.87 44.5 44.5 0 0 0-16.153-17.32C94.047 19.646 80.586 16.522 67.44 12.405c-22.797-7.07-43.189-1.59-62.464 10.563C2.857 24.302.165 25.58.28 29.895c14.492-9.34 29.242-17.035 46.053-17.29 16.812-.256 31.877 5.678 46.311 13.486C76.404 19.93 60.366 13 42.323 14.734 24.28 16.466 11.19 28.192-3.501 36.852c6.129 1.533 8.993-3.493 13.232-5.679 4.238-2.186 8.592-5.196 13.117-7.58 7.647-4.09 9.107-4.402 13.317-3.72C6.867 34.609-4.36 42.388-6.222 49.572c4.525-.739 6.816-4.997 12-7.24C.423 49.77-6.022 54.626-9 61.922c5.384-1.39 7.103-6.842 11.456-9.028 4.413-.568 7.915-3.96 8.592-8.32 3.609-6.558 10.54-8.517 16.668-11.357 24.115-10.96 61.548-11.186 82.083 21.778 9.737 15.616 12.888 32.708 12.744 51.107 0 17.036-17.184 38.245-34.711 39.75-1.633 0-4.296-.71-4.898 2.84 9.366-.54 17.671-2.073 25.089-8.206 14.692-12.152 19.017-27.712 17.728-45.855a113.264 113.264 0 0 0-8.22-34.753 25.481 25.481 0 0 1 7.447 14.197 137.62 137.62 0 0 1 2.864 36.74c-.105 13.31-7.38 25.547-19.074 32.084-14.32 8.887-29.557 8.688-45.194 3.805-2.692-.852-5.728-2.697-9.165-.738 4.84 3.861 15.723 6.757 26.578 7.609 26.291 1.704 49.031-16.411 50.292-41.71 1.546-31.231-4.382-60.476-31.504-81.09-.545-.397-.63-1.164.286-1.788.917.426 2.005.795 3.007 1.334 18.043 9.682 22.397 28.706 28.096 45.741 4.353 12.976 3.122 27.4 1.232 41.397-2.463 18.058-12.831 28.819-29.328 34.44-29.384 9.995-56.277-1.163-70.74-28.25-9.853-18.484-9.738-52.272 11.599-67.291 14.577-10.25 37.661-8.376 48.516 5.678a50.82 50.82 0 0 1 10.597 31.232c.413 9.692-5.52 18.543-14.693 21.92-9.48 3.293-16.525-3.01-23.112-7.61-6.587-4.6-9.938-27.825-6.272-35.52C61.54 66.58 65.75 63.2 72.08 64.167c13.747 2.158 21.68 23.14 13.174 34.071-5.728 3.322-10.625 1.136-14.664-6.53-1.26-2.357-.887-5.679-4.066-7.41a14.992 14.992 0 0 0 1.603 9.71c2.864 6.445 9.566 10.59 15.208 9.625 4.926-.824 8.592-6.417 8.821-13.97.745-15.843-8.305-27.399-23.857-30.437-8.82-1.732-13.26.17-17.613 8.12A46.445 46.445 0 0 0 45.53 95.2c1.088 9.71 8.592 15.9 13.546 23.481.888-6.133-1.46-12.834-6.787-21.692-4.955-8.262-2.378-26.093 4.811-32.34 1.46-1.249 2.864-2.98 6.072-1.76-10.139 6.02-9.938 15.133-8.42 24.73a105.382 105.382 0 0 0 9.25 27.825c3.552 8.234 8.45 9.739 17.299 6.9a57.395 57.395 0 0 0 20.048-11.613 26.318 26.318 0 0 1-11.456 13.685c-9.795 5.878-19.475 4.998-29.07-2.072-.544 4.457 2.034 5.139 3.81 6.275 14.892 9.426 38.062-2.357 41.098-20.84a73.242 73.242 0 0 0-5.385-39.382C91.183 44.944 54.266 40.401 37.34 57.04c-16.468 16.014-17.47 46.621-10.138 64.026 6.272 14.85 15.294 28.11 31.504 33.504 13.117 4.372 26.893 6.388 40.726 2.016 1.46-.455 2.864-1.165 4.668 0a10.082 10.082 0 0 1-8.277 4.117c-19.675 2.385-38.55 1.277-54.416-12.635a87.838 87.838 0 0 1-18.501-23.652c-2.291-4.031-3.81-8.092-1.633-12.947a7.418 7.418 0 0 0-1.288-8.234c-2.206.88-.287 3.805-2.406 5.196-3.58-19.165 5.241-43.583 19.79-54.713 13.633-10.42 28.268-12.919 44.707-6.19 17.184 7.013 22.912 21.693 26.406 37.507 3.036 13.657 4.726 27.712-6.587 39.325-.23.227.23 1.135.601 2.839 5.856-3.645 9.667-9.785 10.31-16.61 2.865-23.935-2.72-44.974-20.677-62.464C77.808 34.183 55.755 30.293 39 40.372 20.528 51.02 6.466 64.904.25 86.284c-3.752 12.89-6.673 24.474 1.919 36.23a24.734 24.734 0 0 1 3.007 6.87c6.014 17.32 19.045 28.734 33.451 38.927 1.976 1.391 4.067 3.095 6.931 1.845-.258-2.839-2.864-2.839-4.353-3.89-11.857-7.78-22.34-16.808-28.898-29.727-4.21-8.518-7.933-17.036-11.914-25.553a12.482 12.482 0 0 1-1.088-9.313c3.093-9.54 6.272-19.08 9.68-28.393a13.23 13.23 0 0 1 5.184-7.44c-23.285 48.78 5.212 85.236 33.566 99.092 12.286 6.02 39.609 8.32 44.306 3.379-1.719-1.25-3.552-.256-5.327-.284-31.017-.256-58.74-10.449-72.316-42.05-11.456-27.03-.63-66.24 24.172-81.914 11.854-8.093 27.202-9.18 40.096-2.839-2.062 1.789-3.637.824-5.04.426a41.267 41.267 0 0 0-31.304 4.089C19.41 58.146 9.93 86.795 14.456 111.042c7.131 37.763 37.232 55.82 74.464 53.493 9.022-.54 17.528-3.237 23.456-11.358a19.209 19.209 0 0 1 10.253-7.41 11.096 11.096 0 0 1 1.49-2.84c8.343-8.53 12.812-20.067 12.372-31.941.063-3.978.34-7.949.83-11.897 2.607 7.297 1.26 14.707 1.977 22.004a25.363 25.363 0 0 0 2.864-17.83c-.373-2.016-1.747-5.281.143-5.736zM15.086 35.063C28.232 21.576 58.906 16.55 75.631 25.04c-21.566-4.912-41.442.227-60.545 10.08v-.057zm58.855 84.44c-2.864 0-4.926-1.448-5.728-5.366 3.695.596 6.502.653 7.533 3.72 0 .482-1.203 1.646-1.805 1.646z"/>
        <path fill="#000" fill-rule="nonzero" d="M3.341 53.522c2.836-2.864 5.672-5.584 8.507-8.362 10.038-4.352 19.849-9.306 30.142-12.914 23.591-8.276 46.332-.487 62.24 20.617 13.072 17.181 16.843 37.226 13.752 58.187-4.31 29.695-37.23 45.845-63.516 31.842-13.242-7.044-19.367-20.388-22.996-33.847-4.99-18.498-.907-35.822 13.809-49.08 14.716-13.258 39.216-7.99 47.92 9.65a51.027 51.027 0 0 1 5.275 28.177c-1.05 10.366-7.713 16.98-17.184 17.01 1.702-4.239 7.09-3.036 9.16-7.131-5.672.716-10.209 5.183-15.823 2.863A19.951 19.951 0 0 1 63.88 99.54c-5.274-11.254-4.338-23.596 2.212-29.752 2.835-2.663 5.671-3.408 9.84.229-9.613.515-11.967 6.643-12.023 13.888 0 9.335 2.155 17.983 10.916 23.051 4.99 2.864 18.148-2.577 19.85-7.817 7.23-21.133-12.903-45.817-34.68-42.724C51.687 57.617 46.328 63 41.366 69.3c-17.722 22.765-4.423 57.127 13.922 69.211-9.045-9.908-16.276-21.018-17.807-34.362-1.474-12.915 0-25.6 8.507-36.968 1.05 1.288 1.333 1.546 1.304 1.632-7.287 12.915-4.934 26.803-4.537 40.69.596 21.076 24.811 38.257 46.135 32.158 13.298-3.809 20.33-13.2 24.3-25.772 8.649-27.175-4.111-61.164-28.355-75.883a47.29 47.29 0 0 0-43.923-3.722C33.71 39.147 26.48 42.01 19.504 45.36 5.326 52.29-.94 65.663-6.781 79.294c-.851 1.975-.397 4.524-2.524 6.099-1.446-4.954-.822-8.19 3.658-16.408C-2.812 63.716.336 58.648 3.34 53.522zM117.168-8.037c6.77 10.6 16.232 19.654 20.832 31.91-3.53.69-3.703-1.601-4.427-2.76-4.383-7.936-11.406-14.257-19.964-17.97a571.06 571.06 0 0 0-59.4-22.912A53.623 53.623 0 0 0 33-21.7c1.678-4.582 5.121-3.671 7.696-3.533 12.5.745 23.928 5.355 35.328 9.716 8.68 3.257 16.926 6.901 25.52 10.02-8.246-7.729-40.102-19.322-63.654-23.077 6.076-3.836 11.429-2.76 16.52-1.407a164.215 164.215 0 0 1 26.504 10.075c13.194 6.294 27.458 11.042 38.192 21.338-2.604-6.625-8.361-10.352-14.264-13.47a285.016 285.016 0 0 0-49.94-20.455c-1.59-.497-2.893-.884-2.893-3.506 22.684 6.929 45.05 14.437 64.783 27.742l.434-.304-.058.525z"/>
        <path fill="#000" fill-rule="nonzero" d="M10.486 147c-11.76-6.626-22.343-36.656-18.787-53.039C-4.14 74.674 7.102 50.37 25 48 6.844 58.348-.097 75.464-4.859 94.018-10.108 114.15 2.857 129.32 10.486 147zM99 127.755c-5.36 8.868-18.031 12.376-28.89 8.952-12.783-4.013-22.33-15.883-22.106-28.707C57.94 133.312 73.71 142.965 99 127.755z"/>
        <path fill="#000" fill-rule="nonzero" d="M2.823 110c-2.44-3.554-1.84-6.021-1.18-10 1.66 3.607 1.3 6.074 1.18 10zM136.208 39.008l.257.28a1.099 1.099 0 0 1-.228-.28C118.62 16.653 94.407 4.1 68.11-5.336a24.153 24.153 0 0 1-8.709-5.448c-12.42-1.32-24.955-4.887-37.119 1.348a77.22 77.22 0 0 1 28.553 1.18c-5.71.814-11.706.308-17.446.954C27.65-6.656 21.711-5.7 17-1.404c18.445-3.763 36.69-5.87 54.793.898a167.751 167.751 0 0 1 48.54 27.41C135.095 39.092 140.663 56.139 144.66 74c1.799-12.975-3.912-23.843-8.452-34.992z"/>
        <path fill="#000" fill-rule="nonzero" d="M58.365-9.891C64.783-7.788 71.2-5.684 77.533-3.415c16.118 5.812 31.66 12.815 44.324 24.383a87.99 87.99 0 0 1 6.821 6.892 60.244 60.244 0 0 1 5.296 6.172 10.837 10.837 0 0 1 1.698 4.013v1.383c1.123.637 2.504 1.828 3.195 1.523 2.044-.83.806-2.768.26-3.958a48.255 48.255 0 0 0-9.614-12.87C113.511 7.02 92.701-2.168 70.597-9.088c-10.764-3.791-21.414-9.105-33.53-8.884-2.879 0-6.131-.498-9.067 2.768 10.908.72 21.068 0 30.077 5.01l.288.304zM83.92 99.07l.16-.14h-.12s-.02.08-.04.14zM77.294 72c1.734 5.57 6.457 10.071 5.15 17.747-3.896-4.733-3.682-9.754-5.817-13.678-1.04-1.905-2.215-3.52-4.456-3.261-2.242.26-2.668 1.76-3.042 3.78-1.28 9.09 7.204 20.835 15.45 21.412 3.495-12.149.347-24.153-7.285-26zm-4.643 4.79c4.003 4.56 2.935 12.034 7.605 16.304-5.31-3.312-8.297-9.716-7.605-16.304z"/>
    </g>
</svg>
